<?xml version="1.0" standalone="no"?>
<svg xmlns="http://www.w3.org/2000/svg" viewBox="0 0 105.552 36" width="105.552" height="36"><g fill="#fea701" color="#fea701" transform="translate(0 4) scale(0.6363637)"><svg width="44.0" height="44.0" x="0.0" y="0.0" viewBox="0 0 44 44"><path fill="currentColor" fill-rule="evenodd" d="M21.973 29.756l14.787 8.535-9.168 5.28-5.605-3.224-5.563 3.225-9.182-5.281 14.73-8.535zm0-15.005L44 27.454v6.492l-3.52 2.07-18.506-10.675L3.525 36.016l-3.52-2.042v-6.52L21.973 14.75zM21.97 0l22.026 12.689v10.576L21.984 10.591 0 23.294V12.703L21.97 0z"></path></svg></g><path fill="#fe4e01" fill-rule="nonzero" d="M3.91 18.82L3.91 18.82Q2.21 18.82 1.18 17.75Q0.14 16.68 0 14.93L0 14.93L2.14 14.28Q2.33 15.60 2.78 16.26Q3.24 16.92 4.13 16.92L4.13 16.92Q4.82 16.92 5.18 16.52Q5.54 16.13 5.54 15.46L5.54 15.46Q5.54 14.86 5.28 14.38Q5.02 13.90 4.42 13.39L4.42 13.39L2.04 11.35Q1.32 10.73 0.83 9.96Q0.34 9.19 0.34 7.97L0.34 7.97Q0.34 6.86 0.78 6.11Q1.22 5.35 2.03 4.96Q2.83 4.56 3.91 4.56L3.91 4.56Q5.57 4.56 6.44 5.63Q7.32 6.70 7.44 8.21L7.44 8.21L5.71 8.86Q5.62 8.14 5.42 7.60Q5.23 7.06 4.90 6.76Q4.56 6.46 4.01 6.46L4.01 6.46Q3.38 6.46 3.01 6.88Q2.64 7.30 2.64 7.87L2.64 7.87Q2.64 8.23 2.80 8.58Q2.95 8.93 3.34 9.26L3.34 9.26L5.78 11.52Q6.29 11.98 6.73 12.50Q7.18 13.03 7.46 13.70Q7.75 14.38 7.75 15.26L7.75 15.26Q7.75 16.44 7.27 17.23Q6.79 18.02 5.93 18.42Q5.06 18.82 3.91 18.82ZM12.41 18.62L9.84 18.62L9.84 4.75L12.41 4.75L12.41 18.62ZM12.41 2.69L9.84 2.69L9.84 0L12.41 0L12.41 2.69ZM18.38 18.82L18.38 18.82Q16.68 18.82 15.65 17.75Q14.62 16.68 14.47 14.93L14.47 14.93L16.61 14.28Q16.80 15.60 17.26 16.26Q17.71 16.92 18.60 16.92L18.60 16.92Q19.30 16.92 19.66 16.52Q20.02 16.13 20.02 15.46L20.02 15.46Q20.02 14.86 19.75 14.38Q19.49 13.90 18.89 13.39L18.89 13.39L16.51 11.35Q15.79 10.73 15.30 9.96Q14.81 9.19 14.81 7.97L14.81 7.97Q14.81 6.86 15.25 6.11Q15.70 5.35 16.50 4.96Q17.30 4.56 18.38 4.56L18.38 4.56Q20.04 4.56 20.92 5.63Q21.79 6.70 21.91 8.21L21.91 8.21L20.18 8.86Q20.09 8.14 19.90 7.60Q19.70 7.06 19.37 6.76Q19.03 6.46 18.48 6.46L18.48 6.46Q17.86 6.46 17.48 6.88Q17.11 7.30 17.11 7.87L17.11 7.87Q17.11 8.23 17.27 8.58Q17.42 8.93 17.81 9.26L17.81 9.26L20.26 11.52Q20.76 11.98 21.20 12.50Q21.65 13.03 21.94 13.70Q22.22 14.38 22.22 15.26L22.22 15.26Q22.22 16.44 21.74 17.23Q21.26 18.02 20.40 18.42Q19.54 18.82 18.38 18.82ZM26.71 18.62L24.14 18.62L24.14 4.75L26.71 4.75L26.71 6.12Q27.41 5.47 28.25 5.02Q29.09 4.56 30.10 4.56L30.10 4.56Q30.94 4.56 31.38 4.99Q31.82 5.42 32.00 6.07Q32.18 6.72 32.18 7.39L32.18 7.39L32.18 18.62L29.62 18.62L29.62 8.14Q29.62 7.39 29.40 6.98Q29.18 6.58 28.51 6.58L28.51 6.58Q28.08 6.58 27.61 6.83Q27.14 7.08 26.71 7.44L26.71 7.44L26.71 18.62ZM38.50 18.82L38.50 18.82Q36.96 18.82 36.07 18.19Q35.18 17.57 34.81 16.42Q34.44 15.26 34.44 13.70L34.44 13.70L34.44 9.67Q34.44 8.11 34.81 6.96Q35.18 5.81 36.07 5.18Q36.96 4.56 38.50 4.56L38.50 4.56Q40.03 4.56 40.91 5.18Q41.78 5.81 42.16 6.96Q42.53 8.11 42.53 9.67L42.53 9.67L42.53 13.70Q42.53 15.26 42.16 16.42Q41.78 17.57 40.91 18.19Q40.03 18.82 38.50 18.82ZM38.50 16.92L38.50 16.92Q39.24 16.92 39.54 16.49Q39.84 16.06 39.90 15.35Q39.96 14.64 39.96 13.87L39.96 13.87L39.96 9.53Q39.96 8.74 39.90 8.04Q39.84 7.34 39.54 6.90Q39.24 6.46 38.50 6.46L38.50 6.46Q37.75 6.46 37.44 6.90Q37.13 7.34 37.07 8.04Q37.01 8.74 37.01 9.53L37.01 9.53L37.01 13.87Q37.01 14.64 37.07 15.35Q37.13 16.06 37.44 16.49Q37.75 16.92 38.50 16.92ZM48.58 18.82L48.58 18.82Q47.50 18.82 46.84 18.41Q46.18 18 45.88 17.26Q45.58 16.51 45.58 15.50L45.58 15.50L45.58 6.46L44.11 6.46L44.11 4.75L45.58 4.75L45.58 0.70L48.14 0.70L48.14 4.75L50.38 4.75L50.38 6.46L48.14 6.46L48.14 15.34Q48.14 16.15 48.41 16.50Q48.67 16.85 49.42 16.85L49.42 16.85Q49.61 16.85 49.86 16.82Q50.11 16.80 50.35 16.78L50.35 16.78L50.35 18.67Q49.87 18.74 49.46 18.78Q49.06 18.82 48.58 18.82ZM54.77 18.82L54.77 18.82Q53.95 18.82 53.33 18.35Q52.70 17.88 52.34 17.15Q51.98 16.42 51.98 15.60L51.98 15.60Q51.98 14.30 52.42 13.42Q52.85 12.53 53.60 11.92Q54.36 11.30 55.36 10.85Q56.35 10.39 57.46 9.96L57.46 9.96L57.46 8.98Q57.46 8.14 57.36 7.58Q57.26 7.03 56.96 6.76Q56.66 6.48 56.06 6.48L56.06 6.48Q55.54 6.48 55.21 6.72Q54.89 6.96 54.74 7.40Q54.60 7.85 54.60 8.45L54.60 8.45L54.60 9.14L52.06 9.05Q52.10 6.74 53.11 5.65Q54.12 4.56 56.23 4.56L56.23 4.56Q58.30 4.56 59.16 5.69Q60.02 6.82 60.02 8.95L60.02 8.95L60.02 15.29Q60.02 15.94 60.06 16.54Q60.10 17.14 60.16 17.65Q60.22 18.17 60.26 18.62L60.26 18.62L57.91 18.62Q57.84 18.24 57.73 17.65Q57.62 17.06 57.58 16.58L57.58 16.58Q57.34 17.40 56.65 18.11Q55.97 18.82 54.77 18.82ZM55.78 16.61L55.78 16.61Q56.16 16.61 56.50 16.39Q56.83 16.18 57.10 15.90Q57.36 15.62 57.46 15.46L57.46 15.46L57.46 11.52Q56.86 11.86 56.33 12.19Q55.80 12.53 55.40 12.90Q55.01 13.27 54.78 13.74Q54.55 14.21 54.55 14.81L54.55 14.81Q54.55 15.65 54.86 16.13Q55.18 16.61 55.78 16.61ZM65.71 18.82L65.71 18.82Q64.01 18.82 62.98 17.75Q61.94 16.68 61.80 14.93L61.80 14.93L63.94 14.28Q64.13 15.60 64.58 16.26Q65.04 16.92 65.93 16.92L65.93 16.92Q66.62 16.92 66.98 16.52Q67.34 16.13 67.34 15.46L67.34 15.46Q67.34 14.86 67.08 14.38Q66.82 13.90 66.22 13.39L66.22 13.39L63.84 11.35Q63.12 10.73 62.63 9.96Q62.14 9.19 62.14 7.97L62.14 7.97Q62.14 6.86 62.58 6.11Q63.02 5.35 63.83 4.96Q64.63 4.56 65.71 4.56L65.71 4.56Q67.37 4.56 68.24 5.63Q69.12 6.70 69.24 8.21L69.24 8.21L67.51 8.86Q67.42 8.14 67.22 7.60Q67.03 7.06 66.70 6.76Q66.36 6.46 65.81 6.46L65.81 6.46Q65.18 6.46 64.81 6.88Q64.44 7.30 64.44 7.87L64.44 7.87Q64.44 8.23 64.60 8.58Q64.75 8.93 65.14 9.26L65.14 9.26L67.58 11.52Q68.09 11.98 68.53 12.50Q68.98 13.03 69.26 13.70Q69.55 14.38 69.55 15.26L69.55 15.26Q69.55 16.44 69.07 17.23Q68.59 18.02 67.73 18.42Q66.86 18.82 65.71 18.82Z" transform="translate(36, 8.592)"></path></svg>